<svg
  xmlns="http://www.w3.org/2000/svg"
  width="25"
  height="24"
  viewBox="0 0 25 24"
  fill="none"
>
  <rect x="0.333374" width="24" height="24" rx="4" fill="#ba4d14" />
  <path
    fill-rule="evenodd"
    clip-rule="evenodd"
    d="M15.8944 7.05185L17.6739 11.2568C17.7761 11.4984 17.7793 11.7706 17.6827 12.0146L15.8302 16.6939C15.4065 17.7642 16.8294 18.5853 17.544 17.6828L21.8252 12.2757C22.1208 11.9024 22.1122 11.3724 21.8045 11.0089L17.5786 6.01606C16.8384 5.1415 15.4478 5.99667 15.8944 7.05185ZM5.67386 11.2568L3.89435 7.05185C3.44781 5.99667 4.83835 5.1415 5.57858 6.01606L9.80451 11.0089C10.1122 11.3724 10.1208 11.9024 9.82521 12.2757L5.54399 17.6828C4.82938 18.5853 3.40646 17.7642 3.8302 16.6939L5.68272 12.0146C5.77931 11.7706 5.77613 11.4984 5.67386 11.2568ZM11.6739 11.2568L9.89435 7.05185C9.44781 5.99667 10.8384 5.1415 11.5786 6.01606L15.8045 11.0089C16.1122 11.3724 16.1208 11.9024 15.8252 12.2757L11.544 17.6828C10.8294 18.5853 9.40646 17.7642 9.8302 16.6939L11.6827 12.0146C11.7793 11.7706 11.7761 11.4984 11.6739 11.2568Z"
    fill="black"
  />
</svg>
